<mxfile host="app.diagrams.net" modified="2021-02-25T02:22:22.047Z" agent="5.0 (Macintosh)" etag="LHLxLHcWfSVdJC918_ry" version="14.4.3" type="github">
  <diagram id="zE2T5QdVDX0B46JAluEr" name="Page-1">
    <mxGraphModel dx="1572" dy="846" grid="0" gridSize="10" guides="1" tooltips="1" connect="1" arrows="1" fold="1" page="1" pageScale="1" pageWidth="850" pageHeight="1100" math="0" shadow="0">
      <root>
        <mxCell id="0" />
        <mxCell id="1" parent="0" />
        <mxCell id="NDjCrDajGScM_7M-d5Hn-34" value="VPC" style="outlineConnect=0;gradientColor=none;html=1;whiteSpace=wrap;fontSize=12;fontStyle=0;shape=mxgraph.aws4.group;grIcon=mxgraph.aws4.group_vpc;strokeColor=#879196;fillColor=none;verticalAlign=top;align=left;spacingLeft=30;fontColor=#879196;dashed=0;" vertex="1" parent="1">
          <mxGeometry x="73" y="128" width="574" height="416" as="geometry" />
        </mxCell>
        <mxCell id="NDjCrDajGScM_7M-d5Hn-1" value="Zyte API" style="ellipse;shape=cloud;whiteSpace=wrap;html=1;" vertex="1" parent="1">
          <mxGeometry x="269" y="10" width="120" height="80" as="geometry" />
        </mxCell>
        <mxCell id="NDjCrDajGScM_7M-d5Hn-6" value="" style="group" vertex="1" connectable="0" parent="1">
          <mxGeometry x="290" y="170" width="80" height="110" as="geometry" />
        </mxCell>
        <mxCell id="NDjCrDajGScM_7M-d5Hn-2" value="" style="points=[[0,0,0],[0.25,0,0],[0.5,0,0],[0.75,0,0],[1,0,0],[0,1,0],[0.25,1,0],[0.5,1,0],[0.75,1,0],[1,1,0],[0,0.25,0],[0,0.5,0],[0,0.75,0],[1,0.25,0],[1,0.5,0],[1,0.75,0]];outlineConnect=0;fontColor=#232F3E;gradientColor=#F78E04;gradientDirection=north;fillColor=#D05C17;strokeColor=#ffffff;dashed=0;verticalLabelPosition=bottom;verticalAlign=top;align=center;html=1;fontSize=12;fontStyle=0;aspect=fixed;shape=mxgraph.aws4.resourceIcon;resIcon=mxgraph.aws4.fargate;" vertex="1" parent="NDjCrDajGScM_7M-d5Hn-6">
          <mxGeometry width="78" height="78" as="geometry" />
        </mxCell>
        <mxCell id="NDjCrDajGScM_7M-d5Hn-5" value="&lt;div&gt;Scrapy Web Crawler&lt;br&gt;&lt;/div&gt;" style="text;html=1;strokeColor=none;fillColor=none;align=center;verticalAlign=middle;whiteSpace=wrap;rounded=0;" vertex="1" parent="NDjCrDajGScM_7M-d5Hn-6">
          <mxGeometry y="90" width="80" height="20" as="geometry" />
        </mxCell>
        <mxCell id="NDjCrDajGScM_7M-d5Hn-7" value="" style="edgeStyle=orthogonalEdgeStyle;rounded=0;orthogonalLoop=1;jettySize=auto;html=1;" edge="1" parent="1" source="NDjCrDajGScM_7M-d5Hn-2" target="NDjCrDajGScM_7M-d5Hn-1">
          <mxGeometry relative="1" as="geometry" />
        </mxCell>
        <mxCell id="NDjCrDajGScM_7M-d5Hn-14" value="" style="edgeStyle=orthogonalEdgeStyle;rounded=0;orthogonalLoop=1;jettySize=auto;html=1;entryX=0;entryY=0.5;entryDx=0;entryDy=0;entryPerimeter=0;" edge="1" parent="1" source="NDjCrDajGScM_7M-d5Hn-11" target="NDjCrDajGScM_7M-d5Hn-2">
          <mxGeometry relative="1" as="geometry">
            <mxPoint x="238.06842981557384" y="209" as="targetPoint" />
          </mxGeometry>
        </mxCell>
        <mxCell id="NDjCrDajGScM_7M-d5Hn-16" value="" style="edgeStyle=orthogonalEdgeStyle;rounded=0;orthogonalLoop=1;jettySize=auto;html=1;entryX=0;entryY=0.5;entryDx=0;entryDy=0;entryPerimeter=0;" edge="1" parent="1" source="NDjCrDajGScM_7M-d5Hn-2" target="NDjCrDajGScM_7M-d5Hn-9">
          <mxGeometry relative="1" as="geometry">
            <mxPoint x="448" y="209" as="targetPoint" />
          </mxGeometry>
        </mxCell>
        <mxCell id="NDjCrDajGScM_7M-d5Hn-17" value="" style="group" vertex="1" connectable="0" parent="1">
          <mxGeometry x="490" y="170" width="80" height="110" as="geometry" />
        </mxCell>
        <mxCell id="NDjCrDajGScM_7M-d5Hn-9" value="" style="points=[[0,0,0],[0.25,0,0],[0.5,0,0],[0.75,0,0],[1,0,0],[0,1,0],[0.25,1,0],[0.5,1,0],[0.75,1,0],[1,1,0],[0,0.25,0],[0,0.5,0],[0,0.75,0],[1,0.25,0],[1,0.5,0],[1,0.75,0]];outlineConnect=0;fontColor=#232F3E;gradientColor=#60A337;gradientDirection=north;fillColor=#277116;strokeColor=#ffffff;dashed=0;verticalLabelPosition=bottom;verticalAlign=top;align=center;html=1;fontSize=12;fontStyle=0;aspect=fixed;shape=mxgraph.aws4.resourceIcon;resIcon=mxgraph.aws4.s3;" vertex="1" parent="NDjCrDajGScM_7M-d5Hn-17">
          <mxGeometry width="78" height="78" as="geometry" />
        </mxCell>
        <mxCell id="NDjCrDajGScM_7M-d5Hn-10" value="Scraped data - partitioned" style="text;html=1;strokeColor=none;fillColor=none;align=center;verticalAlign=middle;whiteSpace=wrap;rounded=0;" vertex="1" parent="NDjCrDajGScM_7M-d5Hn-17">
          <mxGeometry y="78" width="80" height="32" as="geometry" />
        </mxCell>
        <mxCell id="NDjCrDajGScM_7M-d5Hn-19" value="" style="group" vertex="1" connectable="0" parent="1">
          <mxGeometry x="100" y="170" width="80" height="120" as="geometry" />
        </mxCell>
        <mxCell id="NDjCrDajGScM_7M-d5Hn-11" value="" style="outlineConnect=0;fontColor=#232F3E;gradientColor=none;fillColor=#BC1356;strokeColor=none;dashed=0;verticalLabelPosition=bottom;verticalAlign=top;align=center;html=1;fontSize=12;fontStyle=0;aspect=fixed;pointerEvents=1;shape=mxgraph.aws4.event_time_based;" vertex="1" parent="NDjCrDajGScM_7M-d5Hn-19">
          <mxGeometry width="78" height="78" as="geometry" />
        </mxCell>
        <mxCell id="NDjCrDajGScM_7M-d5Hn-12" value="&lt;div&gt;Scheduler&lt;/div&gt;&lt;div&gt;&lt;br&gt;&lt;/div&gt;" style="text;html=1;strokeColor=none;fillColor=none;align=center;verticalAlign=middle;whiteSpace=wrap;rounded=0;" vertex="1" parent="NDjCrDajGScM_7M-d5Hn-19">
          <mxGeometry y="90" width="80" height="30" as="geometry" />
        </mxCell>
        <mxCell id="NDjCrDajGScM_7M-d5Hn-21" value="&lt;div&gt;Postgres - Scraped data&lt;/div&gt;" style="text;html=1;strokeColor=none;fillColor=none;align=center;verticalAlign=middle;whiteSpace=wrap;rounded=0;" vertex="1" parent="1">
          <mxGeometry x="494" y="520" width="76" height="30" as="geometry" />
        </mxCell>
        <mxCell id="NDjCrDajGScM_7M-d5Hn-22" value="" style="points=[[0,0,0],[0.25,0,0],[0.5,0,0],[0.75,0,0],[1,0,0],[0,1,0],[0.25,1,0],[0.5,1,0],[0.75,1,0],[1,1,0],[0,0.25,0],[0,0.5,0],[0,0.75,0],[1,0.25,0],[1,0.5,0],[1,0.75,0]];outlineConnect=0;fontColor=#232F3E;gradientColor=#4D72F3;gradientDirection=north;fillColor=#3334B9;strokeColor=#ffffff;dashed=0;verticalLabelPosition=bottom;verticalAlign=top;align=center;html=1;fontSize=12;fontStyle=0;aspect=fixed;shape=mxgraph.aws4.resourceIcon;resIcon=mxgraph.aws4.rds;" vertex="1" parent="1">
          <mxGeometry x="492" y="420" width="78" height="78" as="geometry" />
        </mxCell>
        <mxCell id="NDjCrDajGScM_7M-d5Hn-25" value="" style="edgeStyle=orthogonalEdgeStyle;rounded=0;orthogonalLoop=1;jettySize=auto;html=1;" edge="1" parent="1" source="NDjCrDajGScM_7M-d5Hn-23" target="NDjCrDajGScM_7M-d5Hn-22">
          <mxGeometry relative="1" as="geometry" />
        </mxCell>
        <mxCell id="NDjCrDajGScM_7M-d5Hn-23" value="What is needed in between?" style="rounded=0;whiteSpace=wrap;html=1;" vertex="1" parent="1">
          <mxGeometry x="476" y="320" width="108" height="60" as="geometry" />
        </mxCell>
        <mxCell id="NDjCrDajGScM_7M-d5Hn-24" value="" style="edgeStyle=orthogonalEdgeStyle;rounded=0;orthogonalLoop=1;jettySize=auto;html=1;" edge="1" parent="1" source="NDjCrDajGScM_7M-d5Hn-9" target="NDjCrDajGScM_7M-d5Hn-23">
          <mxGeometry relative="1" as="geometry" />
        </mxCell>
        <mxCell id="NDjCrDajGScM_7M-d5Hn-26" value="" style="group" vertex="1" connectable="0" parent="1">
          <mxGeometry x="264" y="420" width="80" height="110" as="geometry" />
        </mxCell>
        <mxCell id="NDjCrDajGScM_7M-d5Hn-27" value="" style="points=[[0,0,0],[0.25,0,0],[0.5,0,0],[0.75,0,0],[1,0,0],[0,1,0],[0.25,1,0],[0.5,1,0],[0.75,1,0],[1,1,0],[0,0.25,0],[0,0.5,0],[0,0.75,0],[1,0.25,0],[1,0.5,0],[1,0.75,0]];outlineConnect=0;fontColor=#232F3E;gradientColor=#F78E04;gradientDirection=north;fillColor=#D05C17;strokeColor=#ffffff;dashed=0;verticalLabelPosition=bottom;verticalAlign=top;align=center;html=1;fontSize=12;fontStyle=0;aspect=fixed;shape=mxgraph.aws4.resourceIcon;resIcon=mxgraph.aws4.fargate;" vertex="1" parent="NDjCrDajGScM_7M-d5Hn-26">
          <mxGeometry width="78" height="78" as="geometry" />
        </mxCell>
        <mxCell id="NDjCrDajGScM_7M-d5Hn-28" value="&lt;div&gt;Superset&lt;/div&gt;" style="text;html=1;strokeColor=none;fillColor=none;align=center;verticalAlign=middle;whiteSpace=wrap;rounded=0;" vertex="1" parent="NDjCrDajGScM_7M-d5Hn-26">
          <mxGeometry y="90" width="80" height="20" as="geometry" />
        </mxCell>
        <mxCell id="NDjCrDajGScM_7M-d5Hn-33" style="edgeStyle=orthogonalEdgeStyle;rounded=0;orthogonalLoop=1;jettySize=auto;html=1;exitX=1;exitY=0.5;exitDx=0;exitDy=0;exitPerimeter=0;" edge="1" parent="1" source="NDjCrDajGScM_7M-d5Hn-27" target="NDjCrDajGScM_7M-d5Hn-22">
          <mxGeometry relative="1" as="geometry" />
        </mxCell>
      </root>
    </mxGraphModel>
  </diagram>
</mxfile>
